# xmcd CD database file
#
# Track frame offsets:
#	182
#	17465
#	29740
#	38980
#	47607
#	59802
#	74670
#	101805
#	113077
#	131587
#	142147
#	154505
#	166215
#	175820
#	185892
#	195820
#	210380
#	220825
#	233875
#	247690
#	258805
#	271582
#	282300
#	293065
#	305820
#
# Disc length: 4239 seconds
#
# Revision: 3
# Processed by: cddbd v1.5.2PL0 Copyright (c) Steve Scherf et al.
# Submitted via: CDex 1.51
#
DISCID=71108d19
DTITLE=Various Artist - Top Country - Country Living
DYEAR=1996
DGENRE=Country
TTITLE0=For The Good Times - Ray Price
TTITLE1=I Take A Lot Of Pride In What I Am - Merle Haggard
TTITLE2=Chug-A-Lug - Roger Miller
TTITLE3=Little Boy Sad - Bill Phillips
TTITLE4=Country Girl - Jeannie C Riley
TTITLE5=Mornin' Ride - Lee Greenwood
TTITLE6=To A Sleeping Beauty - Jimmy Dean
TTITLE7=Tender Years - Johnny Paycheck
TTITLE8=Midnight Train To Georgia - Lynn Anderson
TTITLE9=Let Me Be The One - Hank Locklin
TTITLE10=This White Circle On My Finger - Kitty Wells
TTITLE11=Back Up Buddy - Carl Smith
TTITLE12=Second Hand Rose - Roy Drusky
TTITLE13=Far Far Away - Don Gibson
TTITLE14=The Comancheros - Claude King
TTITLE15=Will You Remember Mine - Willie Nelson
TTITLE16=Sittin' In An All Nite Cafe - Warner Mack
TTITLE17=The Most Beautiful Girl - Charlie Rich
TTITLE18=Take Time To Love Her - Nat Stuckey
TTITLE19=Then And Only Then - Connie Smith
TTITLE20=My Elusive Dreams - David Houston
TTITLE21=She Called Me Baby, Baby - Ferlin Husky
TTITLE22=I Can See An Angel - Patsy Cline
TTITLE23=Sheriff Of Boone County - Kenny Price
TTITLE24=Street Of Laredo - Moe Bandy
EXTD=YEAR: 1996
EXTT0=
EXTT1=
EXTT2=
EXTT3=
EXTT4=
EXTT5=
EXTT6=
EXTT7=
EXTT8=
EXTT9=
EXTT10=
EXTT11=
EXTT12=
EXTT13=
EXTT14=
EXTT15=
EXTT16=
EXTT17=
EXTT18=
EXTT19=
EXTT20=
EXTT21=
EXTT22=
EXTT23=
EXTT24=
PLAYORDER=
